<svg id="Laag_1" data-name="Laag 1" xmlns="http://www.w3.org/2000/svg" viewBox="0 0 3061.42 3061.42">
  <defs>
    <style>
      .cls-1 {
        fill: currentColor;
      }

      .cls-2 {
        fill: none;
        stroke: currentColor;
        stroke-miterlimit: 10;
        stroke-width: 56.67px;
      }
    </style>
  </defs>
  <path class="cls-1" d="M753.31,1474.08q-10,0-12.37-16.23-8.51-72.69-13.15-112.89t-6.57-60.31q-1.94-20.12-2.32-25.91c-.26-3.86-.39-6.57-.39-8.11q0-8.51,7.74-18.56t18.55-10q7.74,0,16.63,9.28a149.85,149.85,0,0,1,17,21.65,199.58,199.58,0,0,1,13.92,24.74q5.79,12.38,7.34,17.78Q819.8,1338,843.39,1367t53.74,46.4q30.15,17.38,68,25.13t86.6,7.73q82.73,0,128.74-39.44t46-126.8q0-50.27-22-91.24t-57.61-76.16a609.4,609.4,0,0,0-81.18-66.88q-45.63-31.71-93.56-64.18t-93.56-67.66a516.59,516.59,0,0,1-81.19-77.7,375,375,0,0,1-57.6-94.34q-22-51.79-22-116.75,0-39.44,14.31-73.46a231.7,231.7,0,0,1,38.27-61.85,290.43,290.43,0,0,1,56.06-49.87,372.27,372.27,0,0,1,68.43-37.12A407,407,0,0,1,968.65,380a361.7,361.7,0,0,1,73.07-7.73,336.79,336.79,0,0,1,57.6,5q29,5,57.22,12t56.83,15.08q28.61,8.11,56.44,15.08l51-4.64q7,0,8.9,5.8a68.64,68.64,0,0,1,2.7,10.43l22.43,181.71q0,3.87-10.06,5.41a109.79,109.79,0,0,1-15.46,1.55,124,124,0,0,1-13.92-1.16q-9.27-1.17-10.82-2.71-2.33-2.33-5.8-9.66t-7.35-16.24q-3.86-8.89-8.12-18.17a116.35,116.35,0,0,0-8.89-16.24q-37.11-57.21-95.1-85.44t-127.58-28.22a219.91,219.91,0,0,0-56.45,7q-26.28,7-45.62,22a106.65,106.65,0,0,0-30.54,38.28Q908,532.31,908,564.79q0,47.16,22,85.44t58,71.91a706.51,706.51,0,0,0,82,65.33q46,31.71,93.56,64.57t93.55,70a535.17,535.17,0,0,1,82,82,392.31,392.31,0,0,1,58,99.75q22,54.88,22,123.71,0,45.61-15.85,85a261.44,261.44,0,0,1-42.91,71.52,312.3,312.3,0,0,1-63.4,56.84,408,408,0,0,1-77.71,41.36,467,467,0,0,1-85.06,25.13,446.5,446.5,0,0,1-85.44,8.51q-52.58,0-91.62-7.74t-67.27-17.39q-28.21-9.68-47.55-17.4t-32.48-7.73a23.7,23.7,0,0,0-7,.77Z"/>
  <path class="cls-1" d="M1496.36,1458.62a9.2,9.2,0,0,1,1.16-3.87c.78-1.54,2.45-2.32,5-2.32q14.68,0,37.11-1.54t47.56-5.8a411.12,411.12,0,0,0,50.64-12,216.17,216.17,0,0,0,45.62-19.33q20.1-11.6,32.86-27.83t12.76-38.66V554.74q0-39.43-11.6-61.47t-31.31-32.86q-19.73-10.83-46-13.54a553.84,553.84,0,0,0-56.44-2.7h-44.08c-2.57,0-4.25-.78-5-2.32a9.05,9.05,0,0,1-1.16-3.87V407.05a9,9,0,0,1,1.16-3.86c.77-1.55,2.45-2.32,5-2.32.52,0,3.22-.13,8.12-.39s13.53-.38,25.9-.38,29.13-.13,50.26-.39,48.72-.39,82.74-.39q10.82,0,37.5-.77t61.08-1.55q34.41-.76,72.68-1.93t72.68-1.93q34.41-.78,61.47-1.55t39.44-.77q39.43,0,87.76,2.7a750.45,750.45,0,0,1,97.42,12,576.42,576.42,0,0,1,95.49,26.67q46.4,17.4,82.35,46.4a217.22,217.22,0,0,1,57.6,71.52q21.66,42.52,21.65,102.06,0,35.57-11.21,65A207,207,0,0,1,2454,769.3a238.09,238.09,0,0,1-37.5,39.44,397.07,397.07,0,0,1-37.5,27.83q-17.4,11.22-30.15,16.63t-14.31,6.18a805.23,805.23,0,0,1,83.9,54.13,388,388,0,0,1,70,66.11,300.06,300.06,0,0,1,47.55,80.8q17.4,44.07,17.4,97.42,0,62.63-17,110.57t-44.85,83.51a280.56,280.56,0,0,1-63.79,59.92,422,422,0,0,1-73.84,40.21,486.33,486.33,0,0,1-75.39,24.74,647.54,647.54,0,0,1-68.42,12.76q-30.93,3.85-52.2,4.64t-27.44.77H1502.55c-2.58,0-4.25-.77-5-2.32a9.16,9.16,0,0,1-1.16-3.87Zm593.83-622.43q37.11,0,69.2-13.54a169.64,169.64,0,0,0,55.67-37.5,175.28,175.28,0,0,0,37.12-56.83q13.53-32.85,13.53-71.52,0-58.77-14.31-97t-42.14-60.69q-27.83-22.43-69.2-31.32t-95.49-8.89q-11.6,0-27.45,1.55a168.63,168.63,0,0,0-30.54,5.79q-14.7,4.26-24.74,12t-10.06,20.1v323.2c0,1.55.78,4.39,2.32,8.51s6.7,6.19,15.47,6.19Zm-136.86,453.1q0,30.15,15.46,54.51a152,152,0,0,0,39.44,41.75,198,198,0,0,0,112.89,36.73q49.49,0,87.37-18.56a170.2,170.2,0,0,0,62.63-51.8q24.74-33.26,37.5-79.26t12.76-100.9q0-65.73-20.11-115.21t-56.44-82.73q-36.35-33.26-86.6-49.88t-110.57-16.62h-84.28c-5.15,0-8.12.9-8.89,2.71a14.58,14.58,0,0,0-1.16,5.8Z"/>
  <path class="cls-1" d="M915.76,2662.57l-294-712a68.53,68.53,0,0,0-13.25-21.16,107.45,107.45,0,0,0-16.65-14.67,78.88,78.88,0,0,0-16.36-9,92.72,92.72,0,0,0-13-4.24q-3.94-1.12-9-2.25c-3.39-.76-6.68-1.41-9.88-2s-6.11-1-8.74-1.41-4.14-.56-4.52-.56q-4.51,0-4.51-4.52v-22q0-4.51,4.51-4.51H914.06c2.26,0,3.58.47,4,1.41a8.19,8.19,0,0,1,.57,3.1v22a6.52,6.52,0,0,1-.85,2.82c-.56,1.13-1.79,1.7-3.67,1.7H905.6q-14.1,2.25-31.88,4.51a144,144,0,0,0-33.28,8.18,66.08,66.08,0,0,0-26,17.49Q804,1937,804,1957.31a67.38,67.38,0,0,0,2.54,16.93,102.6,102.6,0,0,0,5.36,15.79l201.42,488.61a6.45,6.45,0,0,0,1.42,2.54l2,2a3.25,3.25,0,0,0,2.26,1.13q3.94,0,6.2-6.21l185.06-499.88q2.26-6.21,4.8-11.57a25.46,25.46,0,0,0,2.54-11,49.27,49.27,0,0,0-13-34.14q-13-14.38-36.11-18.33-3.37-.57-11-1.7t-16.08-2.54q-8.46-1.41-16.36-2.53a90.24,90.24,0,0,0-11.29-1.13q-4.51,0-4.51-4.52v-22a9.46,9.46,0,0,1,.56-2.82c.38-1.13,1.7-1.69,4-1.69h301.85c2.26,0,3.58.56,3.95,1.69a9.21,9.21,0,0,1,.57,2.82v22a8.24,8.24,0,0,1-.57,3.11c-.37.94-1.69,1.41-3.95,1.41h-20.87q-31,6.21-51.06,24a166.27,166.27,0,0,0-33.85,41.75,303.57,303.57,0,0,0-23.42,51.34q-9.59,27.36-19.18,52.75l-218.35,590.17q-5.09,14.1-12.41,16.92t-20.31,2.82H933.25Q919.71,2675,915.76,2662.57Z"/>
  <path class="cls-1" d="M1339.47,2651.79a9.2,9.2,0,0,1-1.16-3.87v-41.75a9.2,9.2,0,0,1,1.16-3.87q1.15-2.33,5-2.32a341.24,341.24,0,0,0,48.32-3.48,122.64,122.64,0,0,0,44.46-15.08q20.1-11.6,32.86-33.24t12.76-58.77V1714.66q0-26.29-8.51-44.08a75.33,75.33,0,0,0-24-29q-15.47-11.22-37.12-16.63a261.86,261.86,0,0,0-47.94-7q-6.18,0-6.18-6.19v-41.75q0-6.19,5.41-6.19h457.74q3.87,0,5,2.32a9.05,9.05,0,0,1,1.16,3.87v41.75q0,4.64-6.18,4.64a232.63,232.63,0,0,0-44.85,4.25q-21.65,4.26-37.88,15.85t-26.29,32.86q-10,21.27-10.06,56.06V2044q0,7.74,2.32,10.06t10.06,2.31h539.7q7.72,0,10-2.31t2.32-10.06V1713.11q0-27.06-17-44.85T2207.78,1640a266.73,266.73,0,0,0-56.05-15.46,539,539,0,0,0-55.67-6.57q-6.2,0-6.19-6.19v-41.75q0-6.19,5.41-6.19H2611q3.87,0,5,2.32a9.2,9.2,0,0,1,1.16,3.87v41.75q0,4.64-6.19,4.64a238.6,238.6,0,0,0-45.23,4.25,106.77,106.77,0,0,0-39.43,15.85q-17.4,11.6-27.84,32.86t-10.44,56.06V2491q0,20.1,5.8,35.95a112.06,112.06,0,0,0,18.17,31.32q12.38,17,40.6,28.61t80,13.14q6.2,0,6.19,6.19v41.75q0,6.18-6.19,6.19H2071.31c-2.57,0-4.25-.78-5-2.32a9.05,9.05,0,0,1-1.16-3.87v-41.75a9.05,9.05,0,0,1,1.16-3.87c.77-1.55,2.45-2.32,5-2.32q23.21,0,56.45-3.09a287.67,287.67,0,0,0,64.56-13.53q31.32-10.44,53.35-30.16t22-53.74v-334q0-7.74-2.32-10.05t-10-2.32h-539.7q-7.74,0-10.06,2.32t-2.32,10.05V2507.2q0,26.28,11.6,44.07a88.18,88.18,0,0,0,30.54,28.61q18.94,10.82,43.69,15.46a276.68,276.68,0,0,0,51,4.64c3.1,0,4.9.77,5.42,2.32a12.92,12.92,0,0,1,.77,3.87v41.75a12.92,12.92,0,0,1-.77,3.87c-.52,1.54-2.07,2.32-4.64,2.32H1344.5C1341.92,2654.11,1340.24,2653.33,1339.47,2651.79Z"/>
  <rect class="cls-2" x="339.26" y="278.33" width="2505.67" height="2505.67"/>
</svg>
